<svg width="25" height="19" viewBox="0 0 25 19" fill="none" xmlns="http://www.w3.org/2000/svg">
<path d="M20 18H16.0625C15.7344 18 15.5 17.7656 15.5 17.4375V15.5625C15.5 15.2812 15.7344 15 16.0625 15H20C20.7969 15 21.5 14.3438 21.5 13.5V4.5C21.5 3.70312 20.7969 3 20 3H16.0625C15.7344 3 15.5 2.76562 15.5 2.4375V0.5625C15.5 0.28125 15.7344 0 16.0625 0H20C22.4844 0 24.5 2.01562 24.5 4.5V13.5C24.5 15.9844 22.4844 18 20 18ZM17.7969 8.57812C18.2188 9.04688 18.2188 9.75 17.7969 10.1719L9.92188 18.0469C9.21875 18.75 8 18.2812 8 17.25V12.75H1.625C0.96875 12.75 0.5 12.2812 0.5 11.625V7.125C0.5 6.51562 0.96875 6 1.625 6H8V1.5C8 0.515625 9.21875 0 9.92188 0.703125L17.7969 8.57812Z" fill="#FAFAFA"/>
</svg>
